<?xml version="1.0" encoding="UTF-8" standalone="no"?>
<svg width="122px" height="113px" viewBox="0 0 122 113" version="1.1" xmlns="http://www.w3.org/2000/svg" xmlns:xlink="http://www.w3.org/1999/xlink" xmlns:sketch="http://www.bohemiancoding.com/sketch/ns">
    <!-- Generator: Sketch 3.4.2 (15857) - http://www.bohemiancoding.com/sketch -->
    <title>pkb-logo</title>
    <desc>Created with Sketch.</desc>
    <defs></defs>
    <g id="Page-1" stroke="none" stroke-width="1" fill="none" fill-rule="evenodd" sketch:type="MSPage">
        <g id="Artboard-1" sketch:type="MSArtboardGroup" transform="translate(-542.000000, -203.000000)" fill="#508EF5">
            <g id="pkb-logo" sketch:type="MSLayerGroup" transform="translate(542.000000, 203.000000)">
                <path d="M112.72,68.4575 C111.34,61.341875 105.28,56 98,56 C92.22,56 87.2,59.3825 84.7,64.3325 C78.68,64.9925 74,70.251875 74,76.625 C74,83.451875 79.38,89 86,89 L112,89 C117.52,89 122,84.38 122,78.6875 C122,73.2425 117.9,68.82875 112.72,68.4575 L112.72,68.4575 Z" id="Shape" sketch:type="MSShapeGroup"></path>
                <path d="M31.6191406,83.4892578 L31.6191406,89 L28.3964844,89 L28.3964844,73.359375 L34.4980469,73.359375 C35.4218796,73.359375 36.2472294,73.48828 36.9741211,73.7460938 C37.7010127,74.0039075 38.316892,74.3637672 38.8217773,74.8256836 C39.3266627,75.2876 39.7115872,75.835446 39.9765625,76.4692383 C40.2415378,77.1030305 40.3740234,77.792314 40.3740234,78.5371094 C40.3740234,79.2962278 40.2415378,79.9801402 39.9765625,80.5888672 C39.7115872,81.1975942 39.3266627,81.7167947 38.8217773,82.1464844 C38.316892,82.576174 37.7010127,82.9073882 36.9741211,83.1401367 C36.2472294,83.3728853 35.4218796,83.4892578 34.4980469,83.4892578 L31.6191406,83.4892578 Z M31.6191406,80.8789062 L34.4980469,80.8789062 C34.9563825,80.8789062 35.3520491,80.8216152 35.6850586,80.7070312 C36.0180681,80.5924473 36.2902008,80.4331065 36.5014648,80.2290039 C36.7127289,80.0249013 36.8684891,79.7796238 36.96875,79.4931641 C37.0690109,79.2067043 37.1191406,78.895184 37.1191406,78.5585938 C37.1191406,78.2220035 37.0690109,77.8979508 36.96875,77.5864258 C36.8684891,77.2749008 36.7127289,76.9991874 36.5014648,76.7592773 C36.2902008,76.5193673 36.0180681,76.3278002 35.6850586,76.1845703 C35.3520491,76.0413404 34.9563825,75.9697266 34.4980469,75.9697266 L31.6191406,75.9697266 L31.6191406,80.8789062 Z M48.4853516,82.7265625 L46.8095703,84.53125 L46.8095703,89 L43.5869141,89 L43.5869141,73.359375 L46.8095703,73.359375 L46.8095703,80.4492188 L48.2275391,78.5048828 L52.2128906,73.359375 L56.1767578,73.359375 L50.6230469,80.3095703 L56.3378906,89 L52.5029297,89 L48.4853516,82.7265625 Z M58.5517578,89 L58.5517578,73.359375 L64.0302734,73.359375 C64.9397832,73.359375 65.7526006,73.4453116 66.46875,73.6171875 C67.1848994,73.7890634 67.7918269,74.0522443 68.2895508,74.4067383 C68.7872746,74.7612322 69.1668281,75.2070286 69.4282227,75.7441406 C69.6896172,76.2812527 69.8203125,76.9150354 69.8203125,77.6455078 C69.8203125,78.0035825 69.7755538,78.3473291 69.6860352,78.6767578 C69.5965165,79.0061865 69.4604501,79.3141262 69.277832,79.6005859 C69.0952139,79.8870457 68.8642592,80.146646 68.5849609,80.3793945 C68.3056627,80.6121431 67.9726582,80.8037102 67.5859375,80.9541016 C68.0442731,81.0686855 68.436359,81.2423491 68.762207,81.4750977 C69.088055,81.7078462 69.356607,81.9781886 69.5678711,82.2861328 C69.7791352,82.5940771 69.933105,82.9288719 70.0297852,83.2905273 C70.1264653,83.6521828 70.1748047,84.0227846 70.1748047,84.4023438 C70.1748047,85.9205805 69.68604,87.0664024 68.7084961,87.8398438 C67.7309521,88.6132851 66.3398528,89 64.5351562,89 L58.5517578,89 Z M61.7744141,82.1894531 L61.7744141,86.4111328 L64.5351562,86.4111328 C64.9505229,86.4111328 65.3085922,86.3592128 65.609375,86.2553711 C65.9101578,86.1515294 66.1608063,86.0083017 66.3613281,85.8256836 C66.56185,85.6430655 66.7104487,85.4282239 66.8071289,85.1811523 C66.9038091,84.9340808 66.9521484,84.6637384 66.9521484,84.3701172 C66.9521484,84.033527 66.9091801,83.7309584 66.8232422,83.4624023 C66.7373043,83.1938463 66.6030283,82.9646819 66.4204102,82.7749023 C66.2377921,82.5851227 65.9996759,82.4401047 65.7060547,82.3398438 C65.4124334,82.2395828 65.0615255,82.1894531 64.6533203,82.1894531 L61.7744141,82.1894531 Z M61.7744141,79.9121094 L64.1591797,79.9121094 C64.9827515,79.8977864 65.5950501,79.7241228 65.9960938,79.3911133 C66.3971374,79.0581038 66.5976562,78.5836619 66.5976562,77.9677734 C66.5976562,77.2587855 66.3917664,76.7485367 65.9799805,76.4370117 C65.5681946,76.1254867 64.9182987,75.9697266 64.0302734,75.9697266 L61.7744141,75.9697266 L61.7744141,79.9121094 Z" id="PKB" sketch:type="MSShapeGroup"></path>
                <path d="M87.2530483,28.495689 L85.8493289,29.8994084 C91.9679897,36.5153935 96.3029483,44.805192 98.0902321,54.0048316 C95.6578001,54.0622491 93.3498439,54.6295041 91.2679614,55.6044243 C87.5670302,35.9050401 70.2741444,21 49.5,21 C26.0278981,21 7,40.0278981 7,63.5 C7,86.9721019 26.0278981,106 49.5,106 C62.6546417,106 74.4134036,100.023528 82.2091507,90.6377183 C83.0327618,90.7928964 83.8820803,90.8740586 84.75,90.8740586 L90.7485047,90.8740586 C81.8801928,104.210536 66.716541,113 49.5,113 C22.1619049,113 -2.13162821e-14,90.8380951 -2.13162821e-14,63.5 C-2.13162821e-14,50.6558736 4.89192428,38.9543174 12.9142317,30.1568724 L11.5370071,28.7796478 L10.1015208,30.2151342 C9.71003059,30.6066244 9.07377749,30.6051023 8.69207928,30.2234041 L5.85061023,27.381935 C5.46368737,26.9950121 5.47229608,26.3590775 5.85888008,25.9724935 L7.29436646,24.5370071 L6.01040764,23.2530483 L3.54082587,25.7226301 C3.14737891,26.1160771 2.51492909,26.1215308 2.11469553,25.7212973 L0.713731591,24.3203333 C0.319548518,23.9261502 0.317434521,23.2891672 0.71239875,22.894203 L9.89420297,13.7123988 C10.2876499,13.3189518 10.9200998,13.313498 11.3203333,13.7137316 L12.7212973,15.1146955 C13.1154803,15.5088786 13.1175943,16.1458616 12.7226301,16.5408259 L10.2530483,19.0104076 L11.5370071,20.2943665 L12.9264501,18.9049235 C13.3179403,18.5134333 13.9541934,18.5149554 14.3358916,18.8966536 L17.1773607,21.7381227 C17.5642835,22.1250455 17.5556748,22.7609802 17.1690908,23.1475642 L15.7796478,24.5370071 L17.2172257,25.974585 C25.0574921,19.2235346 35.0367115,14.8876524 46,14.1218224 L46,8 L41.9999602,8 C41.4476974,8 41,7.54696369 41,7.00296986 L41,0.997030139 C41,0.446385598 41.4547089,-5.32907052e-15 41.9999602,-5.32907052e-15 L57.0000398,-5.32907052e-15 C57.5523026,-5.32907052e-15 58,0.453036308 58,0.997030139 L58,7.00296986 C58,7.5536144 57.5452911,8 57.0000398,8 L53,8 L53,14.1218224 C63.8395619,14.8790096 73.717141,19.1261238 81.516514,25.746942 L83.0104076,24.2530483 L81.7088557,22.9514964 C81.3173655,22.5600062 81.3188876,21.9237531 81.7005858,21.5420549 L84.5420549,18.7005858 C84.9289777,18.313663 85.5649123,18.3222717 85.9514964,18.7088557 L87.2530483,20.0104076 L88.2530483,19.0104076 L85.7834666,16.5408259 C85.3900196,16.1473789 85.3845658,15.5149291 85.7847994,15.1146955 L87.1857633,13.7137316 C87.5799464,13.3195485 88.2169295,13.3174345 88.6118937,13.7123988 L97.7936979,22.894203 C98.1871449,23.2876499 98.1925986,23.9200998 97.7923651,24.3203333 L96.3914011,25.7212973 C95.997218,26.1154803 95.360235,26.1175943 94.9652708,25.7226301 L92.495689,23.2530483 L91.495689,24.2530483 L93.0190664,25.7764257 C93.4105566,26.1679159 93.4090345,26.804169 93.0273362,27.1858672 L90.1858672,30.0273362 C89.7989443,30.4142591 89.1630097,30.4056504 88.7764257,30.0190664 L87.2530483,28.495689 Z M53.9986986,63.3906988 C53.9995646,63.4270275 54,63.4634629 54,63.5 C54,65.9852814 51.9852814,68 49.5,68 C48.5284876,68 47.6288808,67.6921352 46.8934177,67.1686436 L45.4084147,67.9582337 L44,65.3093909 L45.15977,64.6927303 C45.0556175,64.3128654 45,63.9129278 45,63.5 C45,61.0147186 47.0147186,59 49.5,59 C50.8658678,59 52.0896063,59.6085281 52.9148907,60.5692595 L78.4349561,47 L79.8433708,49.6488428 L53.9986986,63.3906988 Z M49,24 L51,24 L51,32 L49,32 L49,24 Z M49,94 L51,94 L51,102 L49,102 L49,94 Z M12,62 L21,62 L21,64 L12,64 L12,62 Z" id="Oval-1" sketch:type="MSShapeGroup"></path>
            </g>
        </g>
    </g>
</svg>
